{"title":"Madeas.Big.Happy.Family.2011.480p.BRRip.XviD.Ac3.Feel-Free","uid":6613840,"size":1535815430,"categoryP":"video","categoryS":"movies","magnet":"?xt=urn:btih:2c6175b4fd531084d1dabdf27190e65b6dc89cfa&amp;dn=Madeas.Big.Happy.Family.2011.480p.BRRip.XviD.Ac3.Feel-Free&amp;tr=udp%3A%2F%2Ftracker.openbittorrent.com%3A80&amp;tr=udp%3A%2F%2Fopen.demonii.com%3A1337&amp;tr=udp%3A%2F%2Ftracker.coppersurfer.tk%3A6969&amp;tr=udp%3A%2F%2Fexodus.desync.com%3A6969","seeders":5,"leechers":2,"uploader":"SnowCrash03","files":-1,"time":1313701253,"description":" Genre: Comedy | Drama\n Language: English\n IMDb: http://www.imdb.com/title/tt1787759/\n Source: BluRay.X264-AMIABLE Thanks!\n \nFormat : AVI\n Format/Info : Audio Video Interleave\n File size : 1.43 GiB\n Duration : 1h 46mn\n Overall bit rate : 1 925 Kbps\n \nVideo\n ID : 0\n Format : MPEG-4 Visual\n Format profile : Advanced Simple@L5\n Format settings, BVOP : Yes\n Format settings, QPel : No\n Format settings, GMC : No warppoints\n Format settings, Matrix : Default (H.263)\n Codec ID : XVID\n Codec ID/Hint : XviD\n Duration : 1h 46mn\n Bit rate : 1 468 Kbps\n Width : 640 pixels\n Height : 360 pixels\n Display aspect ratio : 16:9\n Frame rate : 23.976 fps\n Color space : YUV\n Chroma subsampling : 4:2:0\n Bit depth : 8 bits\n Scan type : Progressive\n Bits/(Pixel*Frame) : 0.266\n Stream size : 1.09 GiB (76%)\n Writing library : XviD 1.2.1 (UTC 2008-12-04)\n \nAudio\n ID : 1\n Format : AC-3\n Format/Info : Audio Coding 3\n Mode extension : CM (complete main)\n Codec ID : 2000\n Duration : 1h 46mn\n Bit rate mode : Constant\n Bit rate : 448 Kbps\n Channel(s) : 6 channels\n Channel positions : Front: L C R, Side: L R, LFE\n Sampling rate : 48.0 KHz\n Bit depth : 16 bits\n Stream size : 341 MiB (23%)\n Alignment : Aligned on interleaves\n Interleave, duration : 42 ms (1.00 video frame)\n Interleave, preload duration : 512 ms\n \n\nPlot:\n Madea jumps into action when her niece, Shirley, receives distressing news about her health. All Shirley wants is to gather her three adult children around her and share the news as a family.\n \n","torrent":{"xt":"urn:btih:2c6175b4fd531084d1dabdf27190e65b6dc89cfa","amp;dn":"Madeas.Big.Happy.Family.2011.480p.BRRip.XviD.Ac3.Feel-Free","amp;tr":["udp%3A%2F%2Ftracker.openbittorrent.com%3A80","udp%3A%2F%2Fopen.demonii.com%3A1337","udp%3A%2F%2Ftracker.coppersurfer.tk%3A6969","udp%3A%2F%2Fexodus.desync.com%3A6969"],"infoHash":"2c6175b4fd531084d1dabdf27190e65b6dc89cfa","infoHashBuffer":{"type":"Buffer","data":[44,97,117,180,253,83,16,132,209,218,189,242,113,144,230,91,109,200,156,250]},"announce":[],"urlList":[]}}